<?xml version="1.0" standalone="no"?>
<!DOCTYPE svg PUBLIC "-//W3C//DTD SVG 20010904//EN"
 "http://www.w3.org/TR/2001/REC-SVG-20010904/DTD/svg10.dtd">
<svg version="1.0" xmlns="http://www.w3.org/2000/svg"
 width="500.000000pt" height="500.000000pt" viewBox="0 0 500.000000 500.000000"
 preserveAspectRatio="xMidYMid meet">

<g transform="translate(0.000000,500.000000) scale(0.100000,-0.100000)"
fill="#000000" stroke="none">
<path d="M1534 2955 c2 -5 97 -236 212 -512 l208 -503 102 0 101 0 206 503
c114 276 207 505 207 510 0 4 -51 7 -112 7 l-113 0 -26 -68 c-76 -198 -262
-652 -266 -648 -2 2 -69 163 -147 358 l-142 353 -117 5 c-76 3 -116 1 -113 -5z"/>
</g>
</svg>
